# xmcd
# Track frame offsets:
# 150
# 14770
# 29910
# 43593
# 57795
# 68898
# 81340
# 95040
# 111468
# 124440
# 137038
# 150498
#
# Disc length: 2191 seconds
# Revision: 0
# Processed by: cddbd v1.4PL0 Copyright (c) Steve Scherf et al.
# Submitted via: VisiTrax 2.9.5.180 - For more info visit www.synapsa.com
#
DISCID=b3088d0c
DTITLE=Susan McCann - Give Me More Time
DYEAR=1900
DGENRE=
TTITLE0=Broken Speed Of The Sound Of Loneliness
TTITLE1=Give Me More Time
TTITLE2=Ain´t It Amazing
TTITLE3=Getting Warmer
TTITLE4=Thank God For Kids
TTITLE5=Mirror,Mirror
TTITLE6=I´ ll Take Care Of You
TTITLE7=Sometimes When We Touch
TTITLE8=A Little Bit Of Love
TTITLE9=You Don´t Have To Say You Love Me
TTITLE10=Fantasize My freedom
TTITLE11=Never Mind
EXTD=
EXTT0=
EXTT1=
EXTT2=
EXTT3=
EXTT4=
EXTT5=
EXTT6=
EXTT7=
EXTT8=
EXTT9=
EXTT10=
EXTT11=
PLAYORDER=
